# xmcd
#
# Track frame offsets:
#	150
#	16505
#	28070
#	42150
#	55810
#	70190
#	81890
#	96675
#	110855
#	124045
#	137525
#	148315
#	161733
#	176225
#	188105
#
# Disc length: 2644 seconds
#
# Revision: 2
# Processed by: cddbd v1.4PL0 Copyright (c) Steve Scherf et al.
# Submitted via: dBpowerAMP V4.0
#
DISCID=d90a520f
DTITLE=Bob Fleming - Bob Fleming Interpreta Boleros
DYEAR=1900
DGENRE=blues
TTITLE0=Frio En El Alma/Aquellos Ojos Verdes
TTITLE1=Una Mujer/Desesperadamente
TTITLE2=Magic Is The Moonlight/Tres Palabras
TTITLE3=Adios/Se Muy Bien Que Viendras
TTITLE4=Solamente Una Vez/Frenesi
TTITLE5=Maria Elena/La Violetera
TTITLE6=Quiereme Mucho/Cubanacan
TTITLE7=Torna A Surriento/O Sole Mio
TTITLE8=Poinciana/Marta
TTITLE9=Stars In Your Eyes/Orquids In The Moonlight
TTITLE10=Quero Beijar-te As M os/Nostalgias
TTITLE11=Porque Ya No Me Quieres/Olhos Castanhos
TTITLE12=Misty
TTITLE13=Cancion De Amor Cubano
TTITLE14=Nocturnal
EXTD=
EXTT0=
EXTT1=
EXTT2=
EXTT3=
EXTT4=
EXTT5=
EXTT6=
EXTT7=
EXTT8=
EXTT9=
EXTT10=
EXTT11=
EXTT12=
EXTT13=
EXTT14=
PLAYORDER=
